<svg width="97" height="98" viewBox="0 0 97 98" fill="none" xmlns="http://www.w3.org/2000/svg">
<path d="M32.4508 30.1767L45.6905 1.90768C45.9471 1.34089 46.3449 0.862245 46.8396 0.525323C47.3342 0.1884 47.9061 0.00650449 48.4913 0C49.6006 0 50.71 0.633717 51.3102 1.90768L64.5499 30.1767L94.2424 34.7238C94.9811 34.8526 95.6565 35.2503 96.1562 35.8506C96.6559 36.451 96.9496 37.2177 96.9885 38.023C97.03 38.5599 96.9588 39.0999 96.7805 39.6031C96.6021 40.1064 96.321 40.5599 95.958 40.9303L74.601 62.8556L79.6326 93.7575C80.1054 96.6517 77.4502 98.9187 75.1102 97.6251L48.4913 82.8863L21.8845 97.6251C21.6069 97.7827 21.3083 97.8929 20.9994 97.9518C18.9261 98.3438 16.9499 96.2923 17.3621 93.7575L22.3937 62.8556L1.04276 40.9303C0.710827 40.5919 0.446989 40.1835 0.267621 39.7306C0.0882529 39.2777 -0.00281646 38.7899 6.63627e-05 38.2974C0.0064151 37.6021 0.184256 36.9212 0.51535 36.3244C0.753176 35.8927 1.07844 35.5246 1.46684 35.2474C1.85524 34.9702 2.29674 34.7912 2.75835 34.7238L32.4508 30.1767ZM48.4913 75.3078C48.9806 75.3056 49.4632 75.4312 49.8977 75.6737L72.2428 88.0475L68.0357 62.1958C67.9336 61.6012 67.9699 60.9886 68.1413 60.4129C68.3127 59.8371 68.6138 59.3162 69.0177 58.8965L86.6404 40.7996L62.0766 37.0365C61.5688 36.9511 61.0874 36.7357 60.6728 36.4083C60.2583 36.0809 59.9227 35.6511 59.6941 35.155L48.4973 11.2566L48.4913 11.2762V75.3078Z" fill="#66B12A"/>
</svg>
