<svg width="97" height="98" viewBox="0 0 97 98" fill="none" xmlns="http://www.w3.org/2000/svg">
<path d="M24.25 15.3125C24.25 14.5003 24.5694 13.7213 25.1378 13.147C25.7063 12.5727 26.4773 12.25 27.2812 12.25H33.3438C34.1477 12.25 34.9187 12.5727 35.4872 13.147C36.0556 13.7213 36.375 14.5003 36.375 15.3125V21.4375C36.375 22.2497 36.0556 23.0287 35.4872 23.603C34.9187 24.1773 34.1477 24.5 33.3438 24.5H27.2812C26.4773 24.5 25.7063 24.1773 25.1378 23.603C24.5694 23.0287 24.25 22.2497 24.25 21.4375V15.3125ZM42.4375 15.3125C42.4375 14.5003 42.7569 13.7213 43.3253 13.147C43.8938 12.5727 44.6648 12.25 45.4688 12.25H51.5312C52.3352 12.25 53.1062 12.5727 53.6747 13.147C54.2431 13.7213 54.5625 14.5003 54.5625 15.3125V21.4375C54.5625 22.2497 54.2431 23.0287 53.6747 23.603C53.1062 24.1773 52.3352 24.5 51.5312 24.5H45.4688C44.6648 24.5 43.8938 24.1773 43.3253 23.603C42.7569 23.0287 42.4375 22.2497 42.4375 21.4375V15.3125ZM63.6562 12.25C62.8523 12.25 62.0813 12.5727 61.5128 13.147C60.9444 13.7213 60.625 14.5003 60.625 15.3125V21.4375C60.625 22.2497 60.9444 23.0287 61.5128 23.603C62.0813 24.1773 62.8523 24.5 63.6562 24.5H69.7188C70.5227 24.5 71.2937 24.1773 71.8622 23.603C72.4306 23.0287 72.75 22.2497 72.75 21.4375V15.3125C72.75 14.5003 72.4306 13.7213 71.8622 13.147C71.2937 12.5727 70.5227 12.25 69.7188 12.25H63.6562ZM24.25 33.6875C24.25 32.8753 24.5694 32.0963 25.1378 31.522C25.7063 30.9477 26.4773 30.625 27.2812 30.625H33.3438C34.1477 30.625 34.9187 30.9477 35.4872 31.522C36.0556 32.0963 36.375 32.8753 36.375 33.6875V39.8125C36.375 40.6247 36.0556 41.4037 35.4872 41.978C34.9187 42.5523 34.1477 42.875 33.3438 42.875H27.2812C26.4773 42.875 25.7063 42.5523 25.1378 41.978C24.5694 41.4037 24.25 40.6247 24.25 39.8125V33.6875ZM45.4688 30.625C44.6648 30.625 43.8938 30.9477 43.3253 31.522C42.7569 32.0963 42.4375 32.8753 42.4375 33.6875V39.8125C42.4375 40.6247 42.7569 41.4037 43.3253 41.978C43.8938 42.5523 44.6648 42.875 45.4688 42.875H51.5312C52.3352 42.875 53.1062 42.5523 53.6747 41.978C54.2431 41.4037 54.5625 40.6247 54.5625 39.8125V33.6875C54.5625 32.8753 54.2431 32.0963 53.6747 31.522C53.1062 30.9477 52.3352 30.625 51.5312 30.625H45.4688ZM60.625 33.6875C60.625 32.8753 60.9444 32.0963 61.5128 31.522C62.0813 30.9477 62.8523 30.625 63.6562 30.625H69.7188C70.5227 30.625 71.2937 30.9477 71.8622 31.522C72.4306 32.0963 72.75 32.8753 72.75 33.6875V39.8125C72.75 40.6247 72.4306 41.4037 71.8622 41.978C71.2937 42.5523 70.5227 42.875 69.7188 42.875H63.6562C62.8523 42.875 62.0813 42.5523 61.5128 41.978C60.9444 41.4037 60.625 40.6247 60.625 39.8125V33.6875ZM27.2812 49C26.4773 49 25.7063 49.3227 25.1378 49.897C24.5694 50.4713 24.25 51.2503 24.25 52.0625V58.1875C24.25 58.9997 24.5694 59.7787 25.1378 60.353C25.7063 60.9273 26.4773 61.25 27.2812 61.25H33.3438C34.1477 61.25 34.9187 60.9273 35.4872 60.353C36.0556 59.7787 36.375 58.9997 36.375 58.1875V52.0625C36.375 51.2503 36.0556 50.4713 35.4872 49.897C34.9187 49.3227 34.1477 49 33.3438 49H27.2812ZM42.4375 52.0625C42.4375 51.2503 42.7569 50.4713 43.3253 49.897C43.8938 49.3227 44.6648 49 45.4688 49H51.5312C52.3352 49 53.1062 49.3227 53.6747 49.897C54.2431 50.4713 54.5625 51.2503 54.5625 52.0625V58.1875C54.5625 58.9997 54.2431 59.7787 53.6747 60.353C53.1062 60.9273 52.3352 61.25 51.5312 61.25H45.4688C44.6648 61.25 43.8938 60.9273 43.3253 60.353C42.7569 59.7787 42.4375 58.9997 42.4375 58.1875V52.0625ZM63.6562 49C62.8523 49 62.0813 49.3227 61.5128 49.897C60.9444 50.4713 60.625 51.2503 60.625 52.0625V58.1875C60.625 58.9997 60.9444 59.7787 61.5128 60.353C62.0813 60.9273 62.8523 61.25 63.6562 61.25H69.7188C70.5227 61.25 71.2937 60.9273 71.8622 60.353C72.4306 59.7787 72.75 58.9997 72.75 58.1875V52.0625C72.75 51.2503 72.4306 50.4713 71.8622 49.897C71.2937 49.3227 70.5227 49 69.7188 49H63.6562Z" fill="#66B12A"/>
<path d="M12.125 6.125C12.125 4.50055 12.7637 2.94263 13.9007 1.79397C15.0376 0.645311 16.5796 0 18.1875 0L78.8125 0C80.4204 0 81.9624 0.645311 83.0993 1.79397C84.2363 2.94263 84.875 4.50055 84.875 6.125V91.875C84.875 93.4995 84.2363 95.0574 83.0993 96.206C81.9624 97.3547 80.4204 98 78.8125 98H18.1875C16.5796 98 15.0376 97.3547 13.9007 96.206C12.7637 95.0574 12.125 93.4995 12.125 91.875V6.125ZM78.8125 6.125H18.1875V91.875H36.375V76.5625C36.375 75.7503 36.6944 74.9713 37.2628 74.397C37.8313 73.8227 38.6023 73.5 39.4062 73.5H57.5938C58.3977 73.5 59.1687 73.8227 59.7372 74.397C60.3056 74.9713 60.625 75.7503 60.625 76.5625V91.875H78.8125V6.125Z" fill="#66B12A"/>
</svg>
