<svg width="227" height="166" viewBox="0 0 227 166" fill="none" xmlns="http://www.w3.org/2000/svg">
<path d="M185.1 58.2C186.9 54.7 188 50.7 188 46.5C188 32.7 176.8 21.5 163 21.5C149.2 21.5 138 32.7 138 46.5C138 47.1 138 47.7 138.1 48.2C125.2 52.6 116 64.7 116 79C116 96.9 130.6 111.5 148.5 111.5H175.5C190.7 111.5 203 99.2 203 84C203 72.2 195.5 62.1 185.1 58.2Z" fill="#A0C279"/>
<path d="M138 46.5C138 47.1 138 47.7 138.1 48.2C125.2 52.6 116 64.7 116 79C116 96.9 130.6 111.5 148.5 111.5H158.5C140.6 111.5 126 96.9 126 79C126 64.7 135.2 52.6 148.1 48.2C148.1 47.6 148 47.1 148 46.5C148 34.4 156.6 24.3 168 22C166.4 21.7 164.7 21.5 163 21.5C149.2 21.5 138 32.7 138 46.5Z" fill="white"/>
<path d="M159.5 137C160.3 137 161 136.3 161 135.5V113H175.5C191.5 113 204.5 100 204.5 84C204.5 72.5 197.6 62 187.1 57.4C188.6 54 189.5 50.2 189.5 46.5C189.5 31.9 177.6 20 163 20C148.4 20 136.5 31.9 136.5 46.5C136.5 46.7 136.5 47 136.5 47.2C123.3 52.2 114.5 64.8 114.5 79C114.5 97.7 129.8 113 148.5 113H158V135.5C158 136.3 158.7 137 159.5 137ZM148.5 110C131.4 110 117.5 96.1 117.5 79C117.5 65.7 126 53.9 138.5 49.6C139.1 49.4 139.6 48.8 139.5 48.1C139.5 47.6 139.4 47 139.4 46.5C139.5 33.5 150 23 163 23C176 23 186.5 33.5 186.5 46.5C186.5 50.3 185.6 54.1 183.8 57.5C183.6 57.9 183.6 58.3 183.7 58.7C183.9 59.1 184.2 59.4 184.6 59.6C194.7 63.4 201.5 73.2 201.5 84C201.5 98.3 189.8 110 175.5 110H161V100.1L180.2 90.5C180.9 90.1 181.2 89.2 180.9 88.5C180.5 87.8 179.6 87.5 178.9 87.8L161 96.7V56.5C161 55.7 160.3 55 159.5 55C158.7 55 158 55.7 158 56.5V76.7L140.2 67.8C139.5 67.4 138.6 67.7 138.2 68.5C137.8 69.2 138.1 70.1 138.9 70.5L158 80.1V110H148.5Z" fill="#62355C"/>
<path d="M86.1 58.2C87.9 54.7 89 50.7 89 46.5C89 32.7 77.8 21.5 64 21.5C50.2 21.5 39 32.7 39 46.5C39 47.1 39 47.7 39.1 48.2C26.2 52.6 17 64.7 17 79C17 96.9 31.6 111.5 49.5 111.5H76.5C91.7 111.5 104 99.2 104 84C104 72.2 96.5 62.1 86.1 58.2Z" fill="#A0C279"/>
<path d="M39 46.5C39 47.1 39 47.7 39.1 48.2C26.2 52.6 17 64.7 17 79C17 96.9 31.6 111.5 49.5 111.5H59.5C41.6 111.5 27 96.9 27 79C27 64.7 36.2 52.6 49.1 48.2C49.1 47.6 49 47.1 49 46.5C49 34.4 57.6 24.3 69 22C67.4 21.7 65.7 21.5 64 21.5C50.2 21.5 39 32.7 39 46.5Z" fill="white"/>
<path d="M60.5 137C61.3 137 62 136.3 62 135.5V113H76.5C92.5 113 105.5 100 105.5 84C105.5 72.5 98.6 62 88.1 57.4C89.6 54 90.5 50.2 90.5 46.5C90.5 31.9 78.6 20 64 20C49.4 20 37.5 31.9 37.5 46.5C37.5 46.7 37.5 47 37.5 47.2C24.3 52.2 15.5 64.8 15.5 79C15.5 97.7 30.8 113 49.5 113H59V135.5C59 136.3 59.7 137 60.5 137ZM49.5 110C32.4 110 18.5 96.1 18.5 79C18.5 65.7 27 53.9 39.5 49.6C40.1 49.4 40.6 48.8 40.5 48.1C40.5 47.6 40.4 47 40.4 46.5C40.5 33.5 51 23 64 23C77 23 87.5 33.5 87.5 46.5C87.5 50.3 86.6 54.1 84.8 57.5C84.6 57.9 84.6 58.3 84.7 58.7C84.9 59.1 85.2 59.4 85.6 59.6C95.7 63.4 102.5 73.2 102.5 84C102.5 98.3 90.8 110 76.5 110H62V100.1L81.2 90.5C81.9 90.1 82.2 89.2 81.9 88.5C81.5 87.8 80.6 87.5 79.9 87.8L62 96.7V56.5C62 55.7 61.3 55 60.5 55C59.7 55 59 55.7 59 56.5V76.7L41.2 67.8C40.5 67.4 39.6 67.7 39.2 68.5C38.8 69.2 39.1 70.1 39.9 70.5L59 80.1V110H49.5Z" fill="#62355C"/>
<path d="M138.1 73.2C139.9 69.7 141 65.7 141 61.5C141 47.7 129.8 36.5 116 36.5C102.2 36.5 91 47.7 91 61.5C91 62.1 91 62.7 91.1 63.2C78.2 67.6 69 79.7 69 94C69 111.9 83.6 126.5 101.5 126.5H128.5C143.7 126.5 156 114.2 156 99C156 87.2 148.5 77.1 138.1 73.2Z" fill="#A0C279"/>
<path d="M91 61.5C91 62.1 91 62.7 91.1 63.2C78.2 67.6 69 79.7 69 94C69 111.9 83.6 126.5 101.5 126.5H111.5C93.6 126.5 79 111.9 79 94C79 79.7 88.2 67.6 101.1 63.2C101.1 62.6 101 62.1 101 61.5C101 49.4 109.6 39.3 121 37C119.4 36.7 117.7 36.5 116 36.5C102.2 36.5 91 47.7 91 61.5Z" fill="white"/>
<path d="M112.5 152C113.3 152 114 151.3 114 150.5V128H128.5C144.5 128 157.5 115 157.5 99C157.5 87.5 150.6 77 140.1 72.4C141.6 69 142.5 65.2 142.5 61.5C142.5 46.9 130.6 35 116 35C101.4 35 89.5 46.9 89.5 61.5C89.5 61.7 89.5 62 89.5 62.2C76.3 67.2 67.5 79.8 67.5 94C67.5 112.7 82.8 128 101.5 128H111V150.5C111 151.3 111.7 152 112.5 152ZM101.5 125C84.4 125 70.5 111.1 70.5 94C70.5 80.7 79 68.9 91.5 64.6C92.1 64.4 92.6 63.8 92.5 63.1C92.5 62.6 92.4 62 92.4 61.5C92.5 48.5 103 38 116 38C129 38 139.5 48.5 139.5 61.5C139.5 65.3 138.6 69.1 136.8 72.5C136.6 72.9 136.6 73.3 136.7 73.7C136.9 74.1 137.2 74.4 137.6 74.6C147.7 78.4 154.5 88.2 154.5 99C154.5 113.3 142.8 125 128.5 125H114V115.1L133.2 105.5C133.9 105.1 134.2 104.2 133.9 103.5C133.5 102.8 132.6 102.5 131.9 102.8L114 111.7V71.5C114 70.7 113.3 70 112.5 70C111.7 70 111 70.7 111 71.5V91.7L93.2 82.8C92.5 82.4 91.6 82.7 91.2 83.5C90.8 84.2 91.1 85.1 91.9 85.5L111 95.1V125H101.5Z" fill="#62355C"/>
</svg>
