<svg width="174" height="100" viewBox="0 0 174 100" fill="none" xmlns="http://www.w3.org/2000/svg">
<path d="M79.098 100C79.098 100 70.5701 100 70.5701 91.6667C70.5701 83.3333 79.098 58.3333 113.209 58.3333C147.321 58.3333 155.849 83.3333 155.849 91.6667C155.849 100 147.321 100 147.321 100H79.098ZM113.209 50C119.995 50 126.502 47.3661 131.3 42.6777C136.098 37.9893 138.793 31.6304 138.793 25C138.793 18.3696 136.098 12.0107 131.3 7.32233C126.502 2.63392 119.995 0 113.209 0C106.424 0 99.917 2.63392 95.1191 7.32233C90.3213 12.0107 87.6259 18.3696 87.6259 25C87.6259 31.6304 90.3213 37.9893 95.1191 42.6777C99.917 47.3661 106.424 50 113.209 50ZM63.8842 100C62.6206 97.3983 61.9902 94.5461 62.0422 91.6667C62.0422 80.375 67.8412 68.75 78.5522 60.6667C73.2068 59.0536 67.6363 58.2664 62.0422 58.3333C27.9307 58.3333 19.4028 83.3333 19.4028 91.6667C19.4028 100 27.9307 100 27.9307 100H63.8842ZM57.7783 50C63.4326 50 68.8554 47.8051 72.8536 43.8981C76.8518 39.991 79.098 34.692 79.098 29.1667C79.098 23.6413 76.8518 18.3423 72.8536 14.4353C68.8554 10.5283 63.4326 8.33333 57.7783 8.33333C52.1239 8.33333 46.7012 10.5283 42.703 14.4353C38.7048 18.3423 36.4586 23.6413 36.4586 29.1667C36.4586 34.692 38.7048 39.991 42.703 43.8981C46.7012 47.8051 52.1239 50 57.7783 50Z" fill="#66B12A"/>
</svg>
