<svg width="128" height="166" viewBox="0 0 128 166" fill="none" xmlns="http://www.w3.org/2000/svg">
<path d="M86.1 65.7C87.9 62.2 89 58.2 89 54C89 40.2 77.8 29 64 29C50.2 29 39 40.2 39 54C39 54.6 39 55.2 39.1 55.7C26.2 60.1 17 72.2 17 86.5C17 104.4 31.6 119 49.5 119H76.5C91.7 119 104 106.7 104 91.5C104 79.7 96.5 69.6 86.1 65.7Z" fill="#A0C279"/>
<path d="M39 54C39 54.6 39 55.2 39.1 55.7C26.2 60.1 17 72.2 17 86.5C17 104.4 31.6 119 49.5 119H59.5C41.6 119 27 104.4 27 86.5C27 72.2 36.2 60.1 49.1 55.7C49.1 55.1 49 54.6 49 54C49 41.9 57.6 31.8 69 29.5C67.4 29.2 65.7 29 64 29C50.2 29 39 40.2 39 54Z" fill="white"/>
<path d="M60.5 144.5C61.3 144.5 62 143.8 62 143V120.5H76.5C92.5 120.5 105.5 107.5 105.5 91.5C105.5 80 98.6 69.5 88.1 64.9C89.6 61.5 90.5 57.7 90.5 54C90.5 39.4 78.6 27.5 64 27.5C49.4 27.5 37.5 39.4 37.5 54C37.5 54.2 37.5 54.5 37.5 54.7C24.3 59.7 15.5 72.3 15.5 86.5C15.5 105.2 30.8 120.5 49.5 120.5H59V143C59 143.8 59.7 144.5 60.5 144.5ZM49.5 117.5C32.4 117.5 18.5 103.6 18.5 86.5C18.5 73.2 27 61.4 39.5 57.1C40.1 56.9 40.6 56.3 40.5 55.6C40.5 55.1 40.4 54.5 40.4 54C40.5 41 51 30.5 64 30.5C77 30.5 87.5 41 87.5 54C87.5 57.8 86.6 61.6 84.8 65C84.6 65.4 84.6 65.8 84.7 66.2C84.9 66.6 85.2 66.9 85.6 67.1C95.7 70.9 102.5 80.7 102.5 91.5C102.5 105.8 90.8 117.5 76.5 117.5H62V107.6L81.2 98C81.9 97.6 82.2 96.7 81.9 96C81.5 95.3 80.6 95 79.9 95.3L62 104.2V64C62 63.2 61.3 62.5 60.5 62.5C59.7 62.5 59 63.2 59 64V84.2L41.2 75.3C40.5 74.9 39.6 75.2 39.2 76C38.8 76.7 39.1 77.6 39.9 78L59 87.6V117.5H49.5Z" fill="#62355C"/>
</svg>
