<svg width="239" height="166" viewBox="0 0 239 166" fill="none" xmlns="http://www.w3.org/2000/svg">
<g clip-path="url(#clip0_99_228)">
<path d="M150.1 46.7C151.9 43.2 153 39.2 153 35C153 21.2 141.8 10 128 10C114.2 10 103 21.2 103 35C103 35.6 103 36.2 103.1 36.7C90.2 41.1 81 53.2 81 67.5C81 85.4 95.6 100 113.5 100H140.5C155.7 100 168 87.7 168 72.5C168 60.7 160.5 50.6 150.1 46.7Z" fill="#A0C279"/>
<path d="M103 35C103 35.6 103 36.2 103.1 36.7C90.2 41.1 81 53.2 81 67.5C81 85.4 95.6 100 113.5 100H123.5C105.6 100 91 85.4 91 67.5C91 53.2 100.2 41.1 113.1 36.7C113.1 36.1 113 35.6 113 35C113 22.9 121.6 12.8 133 10.5C131.4 10.2 129.7 10 128 10C114.2 10 103 21.2 103 35Z" fill="white"/>
<path d="M124.5 125.5C125.3 125.5 126 124.8 126 124V101.5H140.5C156.5 101.5 169.5 88.5 169.5 72.5C169.5 61 162.6 50.5 152.1 45.9C153.6 42.5 154.5 38.7 154.5 35C154.5 20.4 142.6 8.5 128 8.5C113.4 8.5 101.5 20.4 101.5 35C101.5 35.2 101.5 35.5 101.5 35.7C88.3 40.7 79.5 53.3 79.5 67.5C79.5 86.2 94.8 101.5 113.5 101.5H123V124C123 124.8 123.7 125.5 124.5 125.5ZM113.5 98.5C96.4 98.5 82.5 84.6 82.5 67.5C82.5 54.2 91 42.4 103.5 38.1C104.1 37.9 104.6 37.3 104.5 36.6C104.5 36.1 104.4 35.5 104.4 35C104.5 22 115 11.5 128 11.5C141 11.5 151.5 22 151.5 35C151.5 38.8 150.6 42.6 148.8 46C148.6 46.4 148.6 46.8 148.7 47.2C148.9 47.6 149.2 47.9 149.6 48.1C159.7 51.9 166.5 61.7 166.5 72.5C166.5 86.8 154.8 98.5 140.5 98.5H126V88.6L145.2 79C145.9 78.6 146.2 77.7 145.9 77C145.5 76.3 144.6 76 143.9 76.3L126 85.2V45C126 44.2 125.3 43.5 124.5 43.5C123.7 43.5 123 44.2 123 45V65.2L105.2 56.3C104.5 55.9 103.6 56.2 103.2 57C102.8 57.7 103.1 58.6 103.9 59L123 68.6V98.5H113.5Z" fill="#62355C"/>
<path d="M191.1 57.4297C192.9 53.875 194 49.8125 194 45.5469C194 31.5312 182.8 20.1562 169 20.1562C155.2 20.1562 144 31.5312 144 45.5469C144 46.1562 144 46.7656 144.1 47.2734C131.2 51.7422 122 64.0312 122 78.5547C122 96.7344 136.6 111.562 154.5 111.562H181.5C196.7 111.562 209 99.0703 209 83.6328C209 71.6484 201.5 61.3906 191.1 57.4297Z" fill="#A0C279"/>
<path d="M144 45.5469C144 46.1562 144 46.7656 144.1 47.2734C131.2 51.7422 122 64.0312 122 78.5547C122 96.7344 136.6 111.562 154.5 111.562H164.5C146.6 111.562 132 96.7344 132 78.5547C132 64.0312 141.2 51.7422 154.1 47.2734C154.1 46.6641 154 46.1562 154 45.5469C154 33.2578 162.6 23 174 20.6641C172.4 20.3594 170.7 20.1562 169 20.1562C155.2 20.1562 144 31.5312 144 45.5469Z" fill="white"/>
<path d="M165.5 137.461C166.3 137.461 167 136.75 167 135.938V113.086H181.5C197.5 113.086 210.5 99.8828 210.5 83.6328C210.5 71.9531 203.6 61.2891 193.1 56.6172C194.6 53.1641 195.5 49.3047 195.5 45.5469C195.5 30.7188 183.6 18.6328 169 18.6328C154.4 18.6328 142.5 30.7188 142.5 45.5469C142.5 45.75 142.5 46.0547 142.5 46.2578C129.3 51.3359 120.5 64.1328 120.5 78.5547C120.5 97.5469 135.8 113.086 154.5 113.086H164V135.938C164 136.75 164.7 137.461 165.5 137.461ZM154.5 110.039C137.4 110.039 123.5 95.9219 123.5 78.5547C123.5 65.0469 132 53.0625 144.5 48.6953C145.1 48.4922 145.6 47.8828 145.5 47.1719C145.5 46.6641 145.4 46.0547 145.4 45.5469C145.5 32.3438 156 21.6797 169 21.6797C182 21.6797 192.5 32.3438 192.5 45.5469C192.5 49.4062 191.6 53.2656 189.8 56.7188C189.6 57.125 189.6 57.5312 189.7 57.9375C189.9 58.3438 190.2 58.6484 190.6 58.8516C200.7 62.7109 207.5 72.6641 207.5 83.6328C207.5 98.1562 195.8 110.039 181.5 110.039H167V99.9844L186.2 90.2344C186.9 89.8281 187.2 88.9141 186.9 88.2031C186.5 87.4922 185.6 87.1875 184.9 87.4922L167 96.5312V55.7031C167 54.8906 166.3 54.1797 165.5 54.1797C164.7 54.1797 164 54.8906 164 55.7031V76.2187L146.2 67.1797C145.5 66.7734 144.6 67.0781 144.2 67.8906C143.8 68.6016 144.1 69.5156 144.9 69.9219L164 79.6719V110.039H154.5Z" fill="#62355C"/>
</g>
<path d="M175.1 57.4297C176.9 53.875 178 49.8125 178 45.5469C178 31.5312 166.8 20.1562 153 20.1562C139.2 20.1562 128 31.5312 128 45.5469C128 46.1562 128 46.7656 128.1 47.2734C115.2 51.7422 106 64.0312 106 78.5547C106 96.7344 120.6 111.562 138.5 111.562H165.5C180.7 111.562 193 99.0703 193 83.6328C193 71.6484 185.5 61.3906 175.1 57.4297Z" fill="#A0C279"/>
<path d="M128 45.5469C128 46.1562 128 46.7656 128.1 47.2734C115.2 51.7422 106 64.0312 106 78.5547C106 96.7344 120.6 111.562 138.5 111.562H148.5C130.6 111.562 116 96.7344 116 78.5547C116 64.0312 125.2 51.7422 138.1 47.2734C138.1 46.6641 138 46.1562 138 45.5469C138 33.2578 146.6 23 158 20.6641C156.4 20.3594 154.7 20.1562 153 20.1562C139.2 20.1562 128 31.5312 128 45.5469Z" fill="white"/>
<path d="M149.5 137.461C150.3 137.461 151 136.75 151 135.938V113.086H165.5C181.5 113.086 194.5 99.8828 194.5 83.6328C194.5 71.9531 187.6 61.2891 177.1 56.6172C178.6 53.1641 179.5 49.3047 179.5 45.5469C179.5 30.7188 167.6 18.6328 153 18.6328C138.4 18.6328 126.5 30.7188 126.5 45.5469C126.5 45.75 126.5 46.0547 126.5 46.2578C113.3 51.3359 104.5 64.1328 104.5 78.5547C104.5 97.5469 119.8 113.086 138.5 113.086H148V135.938C148 136.75 148.7 137.461 149.5 137.461ZM138.5 110.039C121.4 110.039 107.5 95.9219 107.5 78.5547C107.5 65.0469 116 53.0625 128.5 48.6953C129.1 48.4922 129.6 47.8828 129.5 47.1719C129.5 46.6641 129.4 46.0547 129.4 45.5469C129.5 32.3438 140 21.6797 153 21.6797C166 21.6797 176.5 32.3438 176.5 45.5469C176.5 49.4062 175.6 53.2656 173.8 56.7188C173.6 57.125 173.6 57.5312 173.7 57.9375C173.9 58.3438 174.2 58.6484 174.6 58.8516C184.7 62.7109 191.5 72.6641 191.5 83.6328C191.5 98.1562 179.8 110.039 165.5 110.039H151V99.9844L170.2 90.2344C170.9 89.8281 171.2 88.9141 170.9 88.2031C170.5 87.4922 169.6 87.1875 168.9 87.4922L151 96.5312V55.7031C151 54.8906 150.3 54.1797 149.5 54.1797C148.7 54.1797 148 54.8906 148 55.7031V76.2187L130.2 67.1797C129.5 66.7734 128.6 67.0781 128.2 67.8906C127.8 68.6016 128.1 69.5156 128.9 69.9219L148 79.6719V110.039H138.5Z" fill="#62355C"/>
<g clip-path="url(#clip1_99_228)">
<path d="M86.1 51.7C87.9 48.2 89 44.2 89 40C89 26.2 77.8 15 64 15C50.2 15 39 26.2 39 40C39 40.6 39 41.2 39.1 41.7C26.2 46.1 17 58.2 17 72.5C17 90.4 31.6 105 49.5 105H76.5C91.7 105 104 92.7 104 77.5C104 65.7 96.5 55.6 86.1 51.7Z" fill="#A0C279"/>
<path d="M39 40C39 40.6 39 41.2 39.1 41.7C26.2 46.1 17 58.2 17 72.5C17 90.4 31.6 105 49.5 105H59.5C41.6 105 27 90.4 27 72.5C27 58.2 36.2 46.1 49.1 41.7C49.1 41.1 49 40.6 49 40C49 27.9 57.6 17.8 69 15.5C67.4 15.2 65.7 15 64 15C50.2 15 39 26.2 39 40Z" fill="white"/>
<path d="M60.5 130.5C61.3 130.5 62 129.8 62 129V106.5H76.5C92.5 106.5 105.5 93.5 105.5 77.5C105.5 66 98.6 55.5 88.1 50.9C89.6 47.5 90.5 43.7 90.5 40C90.5 25.4 78.6 13.5 64 13.5C49.4 13.5 37.5 25.4 37.5 40C37.5 40.2 37.5 40.5 37.5 40.7C24.3 45.7 15.5 58.3 15.5 72.5C15.5 91.2 30.8 106.5 49.5 106.5H59V129C59 129.8 59.7 130.5 60.5 130.5ZM49.5 103.5C32.4 103.5 18.5 89.6 18.5 72.5C18.5 59.2 27 47.4 39.5 43.1C40.1 42.9 40.6 42.3 40.5 41.6C40.5 41.1 40.4 40.5 40.4 40C40.5 27 51 16.5 64 16.5C77 16.5 87.5 27 87.5 40C87.5 43.8 86.6 47.6 84.8 51C84.6 51.4 84.6 51.8 84.7 52.2C84.9 52.6 85.2 52.9 85.6 53.1C95.7 56.9 102.5 66.7 102.5 77.5C102.5 91.8 90.8 103.5 76.5 103.5H62V93.6L81.2 84C81.9 83.6 82.2 82.7 81.9 82C81.5 81.3 80.6 81 79.9 81.3L62 90.2V50C62 49.2 61.3 48.5 60.5 48.5C59.7 48.5 59 49.2 59 50V70.2L41.2 61.3C40.5 60.9 39.6 61.2 39.2 62C38.8 62.7 39.1 63.6 39.9 64L59 73.6V103.5H49.5Z" fill="#62355C"/>
<path d="M126.1 61.7C127.9 58.2 129 54.2 129 50C129 36.2 117.8 25 104 25C90.2 25 79 36.2 79 50C79 50.6 79 51.2 79.1 51.7C66.2 56.1 57 68.2 57 82.5C57 100.4 71.6 115 89.5 115H116.5C131.7 115 144 102.7 144 87.5C144 75.7 136.5 65.6 126.1 61.7Z" fill="#A0C279"/>
<path d="M79 50C79 50.6 79 51.2 79.1 51.7C66.2 56.1 57 68.2 57 82.5C57 100.4 71.6 115 89.5 115H99.5C81.6 115 67 100.4 67 82.5C67 68.2 76.2 56.1 89.1 51.7C89.1 51.1 89 50.6 89 50C89 37.9 97.6 27.8 109 25.5C107.4 25.2 105.7 25 104 25C90.2 25 79 36.2 79 50Z" fill="white"/>
<path d="M100.5 140.5C101.3 140.5 102 139.8 102 139V116.5H116.5C132.5 116.5 145.5 103.5 145.5 87.5C145.5 76 138.6 65.5 128.1 60.9C129.6 57.5 130.5 53.7 130.5 50C130.5 35.4 118.6 23.5 104 23.5C89.4 23.5 77.5 35.4 77.5 50C77.5 50.2 77.5 50.5 77.5 50.7C64.3 55.7 55.5 68.3 55.5 82.5C55.5 101.2 70.8 116.5 89.5 116.5H99V139C99 139.8 99.7 140.5 100.5 140.5ZM89.5 113.5C72.4 113.5 58.5 99.6 58.5 82.5C58.5 69.2 67 57.4 79.5 53.1C80.1 52.9 80.6 52.3 80.5 51.6C80.5 51.1 80.4 50.5 80.4 50C80.5 37 91 26.5 104 26.5C117 26.5 127.5 37 127.5 50C127.5 53.8 126.6 57.6 124.8 61C124.6 61.4 124.6 61.8 124.7 62.2C124.9 62.6 125.2 62.9 125.6 63.1C135.7 66.9 142.5 76.7 142.5 87.5C142.5 101.8 130.8 113.5 116.5 113.5H102V103.6L121.2 94C121.9 93.6 122.2 92.7 121.9 92C121.5 91.3 120.6 91 119.9 91.3L102 100.2V60C102 59.2 101.3 58.5 100.5 58.5C99.7 58.5 99 59.2 99 60V80.2L81.2 71.3C80.5 70.9 79.6 71.2 79.2 72C78.8 72.7 79.1 73.6 79.9 74L99 83.6V113.5H89.5Z" fill="#62355C"/>
</g>
<path d="M197.1 69.7C198.9 66.2 200 62.2 200 58C200 44.2 188.8 33 175 33C161.2 33 150 44.2 150 58C150 58.6 150 59.2 150.1 59.7C137.2 64.1 128 76.2 128 90.5C128 108.4 142.6 123 160.5 123H187.5C202.7 123 215 110.7 215 95.5C215 83.7 207.5 73.6 197.1 69.7Z" fill="#A0C279"/>
<path d="M150 58C150 58.6 150 59.2 150.1 59.7C137.2 64.1 128 76.2 128 90.5C128 108.4 142.6 123 160.5 123H170.5C152.6 123 138 108.4 138 90.5C138 76.2 147.2 64.1 160.1 59.7C160.1 59.1 160 58.6 160 58C160 45.9 168.6 35.8 180 33.5C178.4 33.2 176.7 33 175 33C161.2 33 150 44.2 150 58Z" fill="white"/>
<path d="M171.5 148.5C172.3 148.5 173 147.8 173 147V124.5H187.5C203.5 124.5 216.5 111.5 216.5 95.5C216.5 84 209.6 73.5 199.1 68.9C200.6 65.5 201.5 61.7 201.5 58C201.5 43.4 189.6 31.5 175 31.5C160.4 31.5 148.5 43.4 148.5 58C148.5 58.2 148.5 58.5 148.5 58.7C135.3 63.7 126.5 76.3 126.5 90.5C126.5 109.2 141.8 124.5 160.5 124.5H170V147C170 147.8 170.7 148.5 171.5 148.5ZM160.5 121.5C143.4 121.5 129.5 107.6 129.5 90.5C129.5 77.2 138 65.4 150.5 61.1C151.1 60.9 151.6 60.3 151.5 59.6C151.5 59.1 151.4 58.5 151.4 58C151.5 45 162 34.5 175 34.5C188 34.5 198.5 45 198.5 58C198.5 61.8 197.6 65.6 195.8 69C195.6 69.4 195.6 69.8 195.7 70.2C195.9 70.6 196.2 70.9 196.6 71.1C206.7 74.9 213.5 84.7 213.5 95.5C213.5 109.8 201.8 121.5 187.5 121.5H173V111.6L192.2 102C192.9 101.6 193.2 100.7 192.9 100C192.5 99.3 191.6 99 190.9 99.3L173 108.2V68C173 67.2 172.3 66.5 171.5 66.5C170.7 66.5 170 67.2 170 68V88.2L152.2 79.3C151.5 78.9 150.6 79.2 150.2 80C149.8 80.7 150.1 81.6 150.9 82L170 91.6V121.5H160.5Z" fill="#62355C"/>
<path d="M98.1 69.7C99.9 66.2 101 62.2 101 58C101 44.2 89.8 33 76 33C62.2 33 51 44.2 51 58C51 58.6 51 59.2 51.1 59.7C38.2 64.1 29 76.2 29 90.5C29 108.4 43.6 123 61.5 123H88.5C103.7 123 116 110.7 116 95.5C116 83.7 108.5 73.6 98.1 69.7Z" fill="#A0C279"/>
<path d="M51 58C51 58.6 51 59.2 51.1 59.7C38.2 64.1 29 76.2 29 90.5C29 108.4 43.6 123 61.5 123H71.5C53.6 123 39 108.4 39 90.5C39 76.2 48.2 64.1 61.1 59.7C61.1 59.1 61 58.6 61 58C61 45.9 69.6 35.8 81 33.5C79.4 33.2 77.7 33 76 33C62.2 33 51 44.2 51 58Z" fill="white"/>
<path d="M72.5 148.5C73.3 148.5 74 147.8 74 147V124.5H88.5C104.5 124.5 117.5 111.5 117.5 95.5C117.5 84 110.6 73.5 100.1 68.9C101.6 65.5 102.5 61.7 102.5 58C102.5 43.4 90.6 31.5 76 31.5C61.4 31.5 49.5 43.4 49.5 58C49.5 58.2 49.5 58.5 49.5 58.7C36.3 63.7 27.5 76.3 27.5 90.5C27.5 109.2 42.8 124.5 61.5 124.5H71V147C71 147.8 71.7 148.5 72.5 148.5ZM61.5 121.5C44.4 121.5 30.5 107.6 30.5 90.5C30.5 77.2 39 65.4 51.5 61.1C52.1 60.9 52.6 60.3 52.5 59.6C52.5 59.1 52.4 58.5 52.4 58C52.5 45 63 34.5 76 34.5C89 34.5 99.5 45 99.5 58C99.5 61.8 98.6 65.6 96.8 69C96.6 69.4 96.6 69.8 96.7 70.2C96.9 70.6 97.2 70.9 97.6 71.1C107.7 74.9 114.5 84.7 114.5 95.5C114.5 109.8 102.8 121.5 88.5 121.5H74V111.6L93.2 102C93.9 101.6 94.2 100.7 93.9 100C93.5 99.3 92.6 99 91.9 99.3L74 108.2V68C74 67.2 73.3 66.5 72.5 66.5C71.7 66.5 71 67.2 71 68V88.2L53.2 79.3C52.5 78.9 51.6 79.2 51.2 80C50.8 80.7 51.1 81.6 51.9 82L71 91.6V121.5H61.5Z" fill="#62355C"/>
<path d="M150.1 84.7C151.9 81.2 153 77.2 153 73C153 59.2 141.8 48 128 48C114.2 48 103 59.2 103 73C103 73.6 103 74.2 103.1 74.7C90.2 79.1 81 91.2 81 105.5C81 123.4 95.6 138 113.5 138H140.5C155.7 138 168 125.7 168 110.5C168 98.7 160.5 88.6 150.1 84.7Z" fill="#A0C279"/>
<path d="M103 73C103 73.6 103 74.2 103.1 74.7C90.2 79.1 81 91.2 81 105.5C81 123.4 95.6 138 113.5 138H123.5C105.6 138 91 123.4 91 105.5C91 91.2 100.2 79.1 113.1 74.7C113.1 74.1 113 73.6 113 73C113 60.9 121.6 50.8 133 48.5C131.4 48.2 129.7 48 128 48C114.2 48 103 59.2 103 73Z" fill="white"/>
<path d="M124.5 163.5C125.3 163.5 126 162.8 126 162V139.5H140.5C156.5 139.5 169.5 126.5 169.5 110.5C169.5 99 162.6 88.5 152.1 83.9C153.6 80.5 154.5 76.7 154.5 73C154.5 58.4 142.6 46.5 128 46.5C113.4 46.5 101.5 58.4 101.5 73C101.5 73.2 101.5 73.5 101.5 73.7C88.3 78.7 79.5 91.3 79.5 105.5C79.5 124.2 94.8 139.5 113.5 139.5H123V162C123 162.8 123.7 163.5 124.5 163.5ZM113.5 136.5C96.4 136.5 82.5 122.6 82.5 105.5C82.5 92.2 91 80.4 103.5 76.1C104.1 75.9 104.6 75.3 104.5 74.6C104.5 74.1 104.4 73.5 104.4 73C104.5 60 115 49.5 128 49.5C141 49.5 151.5 60 151.5 73C151.5 76.8 150.6 80.6 148.8 84C148.6 84.4 148.6 84.8 148.7 85.2C148.9 85.6 149.2 85.9 149.6 86.1C159.7 89.9 166.5 99.7 166.5 110.5C166.5 124.8 154.8 136.5 140.5 136.5H126V126.6L145.2 117C145.9 116.6 146.2 115.7 145.9 115C145.5 114.3 144.6 114 143.9 114.3L126 123.2V83C126 82.2 125.3 81.5 124.5 81.5C123.7 81.5 123 82.2 123 83V103.2L105.2 94.3C104.5 93.9 103.6 94.2 103.2 95C102.8 95.7 103.1 96.6 103.9 97L123 106.6V136.5H113.5Z" fill="#62355C"/>
<defs>
<clipPath id="clip0_99_228">
<rect width="128" height="128" fill="white" transform="translate(64)"/>
</clipPath>
<clipPath id="clip1_99_228">
<rect width="128" height="128" fill="white" transform="translate(0 5)"/>
</clipPath>
</defs>
</svg>
