<svg width="97" height="98" viewBox="0 0 97 98" fill="none" xmlns="http://www.w3.org/2000/svg">
<path d="M48.5 49C54.9315 49 61.0996 46.4188 65.6473 41.8241C70.1951 37.2295 72.75 30.9978 72.75 24.5C72.75 18.0022 70.1951 11.7705 65.6473 7.17588C61.0996 2.58124 54.9315 0 48.5 0C42.0685 0 35.9004 2.58124 31.3527 7.17588C26.8049 11.7705 24.25 18.0022 24.25 24.5C24.25 30.9978 26.8049 37.2295 31.3527 41.8241C35.9004 46.4188 42.0685 49 48.5 49ZM64.6667 24.5C64.6667 28.8319 62.9634 32.9863 59.9316 36.0494C56.8997 39.1125 52.7877 40.8333 48.5 40.8333C44.2123 40.8333 40.1003 39.1125 37.0684 36.0494C34.0366 32.9863 32.3333 28.8319 32.3333 24.5C32.3333 20.1681 34.0366 16.0137 37.0684 12.9506C40.1003 9.88749 44.2123 8.16667 48.5 8.16667C52.7877 8.16667 56.8997 9.88749 59.9316 12.9506C62.9634 16.0137 64.6667 20.1681 64.6667 24.5ZM97 89.8333C97 98 88.9167 98 88.9167 98H8.08333C8.08333 98 0 98 0 89.8333C0 81.6667 8.08333 57.1667 48.5 57.1667C88.9167 57.1667 97 81.6667 97 89.8333ZM88.9167 89.8007C88.9086 87.7917 87.6718 81.7483 82.1913 76.2113C76.921 70.8867 67.0028 65.3333 48.5 65.3333C29.9972 65.3333 20.079 70.8867 14.8087 76.2113C9.32817 81.7483 8.0995 87.7917 8.08333 89.8007H88.9167Z" fill="#66B12A"/>
</svg>
